<?xml version="1.0" encoding="iso-8859-1"?>
<!-- Generator: Adobe Illustrator 19.0.0, SVG Export Plug-In . SVG Version: 6.00 Build 0)  -->
<svg version="1.1" id="Layer_1" xmlns="http://www.w3.org/2000/svg" xmlns:xlink="http://www.w3.org/1999/xlink" x="0px" y="0px"
	 viewBox="0 0 218.155 218.155" style="enable-background:new 0 0 218.155 218.155;" xml:space="preserve">
<g>
	<g>
		<g>
			<path d="M120.549,209.745c-3.702,0.409-7.485,0.616-11.237,0.616c-2.154,0-3.897,1.745-3.897,3.897
				c0,2.152,1.743,3.897,3.897,3.897c4.037,0,8.105-0.222,12.089-0.662c2.138-0.236,3.683-2.161,3.448-4.302
				C124.613,211.053,122.699,209.515,120.549,209.745z"/>
			<path d="M152.867,200.548c-3.375,1.612-6.88,3.046-10.407,4.266c-2.032,0.704-3.113,2.922-2.409,4.956
				c0.56,1.614,2.066,2.626,3.683,2.626c0.422,0,0.853-0.071,1.275-0.215c3.801-1.317,7.576-2.864,11.214-4.601
				c1.94-0.927,2.767-3.252,1.838-5.194C157.136,200.443,154.804,199.614,152.867,200.548z"/>
			<path d="M159.306,12.053c-3.581-1.849-7.306-3.514-11.065-4.949c-1.998-0.767-4.262,0.236-5.03,2.251
				c-0.765,2.011,0.244,4.262,2.253,5.028c3.489,1.332,6.944,2.877,10.267,4.595c0.571,0.295,1.183,0.434,1.785,0.434
				c1.412,0,2.774-0.769,3.466-2.108C161.965,15.392,161.216,13.042,159.306,12.053z"/>
			<path d="M60.058,197.607c-3.272-1.827-6.469-3.851-9.502-6.014c-1.758-1.246-4.186-0.841-5.438,0.908
				c-1.248,1.752-0.841,4.186,0.909,5.436c3.265,2.331,6.709,4.509,10.232,6.475c0.601,0.337,1.252,0.495,1.895,0.495
				c1.366,0,2.694-0.719,3.406-1.998C62.611,201.028,61.937,198.655,60.058,197.607z"/>
			<path d="M91.721,208.842c-3.683-0.645-7.367-1.505-10.951-2.555c-2.062-0.609-4.228,0.578-4.836,2.643
				c-0.605,2.064,0.578,4.229,2.645,4.834c3.858,1.132,7.827,2.059,11.796,2.753c0.228,0.04,0.457,0.059,0.677,0.059
				c1.857,0,3.505-1.332,3.836-3.225C95.256,211.231,93.84,209.213,91.721,208.842z"/>
			<path d="M78.06,12.46c0.381,0,0.772-0.057,1.157-0.177c3.565-1.107,7.237-2.026,10.91-2.73c2.112-0.403,3.497-2.445,3.093-4.559
				c-0.404-2.114-2.454-3.495-4.562-3.093c-3.953,0.757-7.907,1.746-11.754,2.94C74.849,5.48,73.7,7.662,74.339,9.718
				C74.856,11.387,76.397,12.46,78.06,12.46z"/>
			<path d="M208.496,88.288c0.765,3.676,1.328,7.418,1.678,11.123c0.19,2.019,1.887,3.531,3.874,3.531
				c0.122,0,0.244-0.006,0.369-0.017c2.142-0.202,3.718-2.103,3.512-4.245c-0.373-3.99-0.982-8.019-1.8-11.975
				c-0.441-2.108-2.519-3.468-4.608-3.023C209.413,84.118,208.062,86.18,208.496,88.288z"/>
			<path d="M214.169,118.498c-2.184-0.284-4.087,1.246-4.353,3.379c-0.464,3.693-1.145,7.414-2.024,11.064
				c-0.506,2.091,0.78,4.197,2.873,4.701c0.308,0.074,0.613,0.108,0.917,0.108c1.758,0,3.353-1.199,3.782-2.983
				c0.948-3.929,1.682-7.938,2.184-11.916C217.819,120.715,216.304,118.766,214.169,118.498z"/>
			<path d="M179.435,25.462c-1.648-1.381-4.102-1.168-5.491,0.476c-1.385,1.647-1.172,4.106,0.476,5.491
				c2.858,2.403,5.62,4.994,8.204,7.702c0.769,0.803,1.792,1.206,2.82,1.206c0.966,0,1.937-0.358,2.69-1.079
				c1.556-1.486,1.614-3.952,0.129-5.508C185.482,30.835,182.51,28.048,179.435,25.462z"/>
			<path d="M180.386,181.244c-2.664,2.624-5.502,5.127-8.44,7.439c-1.69,1.332-1.979,3.782-0.647,5.472
				c0.769,0.976,1.91,1.486,3.063,1.486c0.841,0,1.693-0.272,2.408-0.835c3.159-2.491,6.218-5.185,9.087-8.01
				c1.53-1.511,1.549-3.976,0.042-5.51C184.39,179.754,181.927,179.73,180.386,181.244z"/>
			<path d="M205.33,152.279c-1.925-0.957-4.269-0.168-5.221,1.762c-1.655,3.337-3.524,6.625-5.548,9.776
				c-1.164,1.81-0.643,4.22,1.168,5.384c0.651,0.42,1.381,0.62,2.104,0.62c1.282,0,2.534-0.632,3.28-1.789
				c2.184-3.392,4.193-6.935,5.974-10.533C208.047,155.572,207.255,153.234,205.33,152.279z"/>
			<path d="M12.081,137.6c-0.605-2.061-2.763-3.25-4.836-2.641c-2.066,0.605-3.25,2.77-2.645,4.836
				c1.134,3.855,2.496,7.696,4.06,11.42c0.624,1.492,2.07,2.392,3.592,2.392c0.502,0,1.016-0.099,1.507-0.304
				c1.986-0.833,2.919-3.116,2.085-5.101C14.395,144.745,13.128,141.179,12.081,137.6z"/>
			<path d="M8.2,115.484c-0.133-2.127-0.198-4.273-0.198-6.423c0.004-1.619,0.042-3.233,0.114-4.834
				c0.099-2.15-1.564-3.973-3.714-4.072c-2.112-0.055-3.973,1.562-4.072,3.714c-0.08,1.716-0.118,3.44-0.122,5.182
				c0,2.323,0.072,4.629,0.213,6.916c0.129,2.066,1.842,3.655,3.885,3.655c0.08,0,0.164-0.002,0.244-0.008
				C6.701,119.482,8.333,117.632,8.2,115.484z"/>
			<path d="M20.432,52.609c0.675,0.464,1.444,0.686,2.205,0.686c1.241,0,2.458-0.59,3.212-1.688
				c2.112-3.063,4.425-6.054,6.888-8.889c1.408-1.627,1.233-4.087-0.392-5.496c-1.629-1.408-4.083-1.237-5.498,0.39
				c-2.645,3.054-5.141,6.275-7.412,9.578C18.213,48.961,18.663,51.389,20.432,52.609z"/>
			<path d="M112.52,7.793c3.744,0.116,7.515,0.441,11.203,0.968c0.19,0.025,0.373,0.038,0.556,0.038c1.91,0,3.577-1.402,3.855-3.347
				c0.304-2.131-1.179-4.104-3.307-4.407c-3.976-0.567-8.033-0.917-12.063-1.043c-2.116-0.067-3.95,1.621-4.018,3.775
				C108.681,5.928,110.37,7.726,112.52,7.793z"/>
			<path d="M6.849,84.77c0.346,0.097,0.692,0.143,1.039,0.143c1.709,0,3.276-1.134,3.752-2.864
				c0.993-3.602,2.203-7.186,3.592-10.655c0.803-1.996-0.168-4.266-2.165-5.067c-2.002-0.801-4.266,0.168-5.065,2.167
				c-1.499,3.737-2.804,7.601-3.874,11.482C3.554,82.053,4.775,84.2,6.849,84.77z"/>
			<path d="M201.49,66.949c0.655,1.431,2.066,2.274,3.547,2.274c0.54,0,1.092-0.112,1.617-0.354c1.96-0.896,2.816-3.208,1.922-5.166
				c-1.682-3.668-3.581-7.276-5.651-10.721c-1.107-1.843-3.497-2.445-5.346-1.334c-1.845,1.109-2.443,3.503-1.336,5.348
				C198.164,60.193,199.93,63.541,201.49,66.949z"/>
			<path d="M46.931,28.23c0.802,0,1.612-0.247,2.308-0.761c3.002-2.218,6.168-4.292,9.407-6.168c1.861-1.077,2.5-3.461,1.42-5.323
				c-1.081-1.865-3.455-2.502-5.323-1.42c-3.489,2.019-6.895,4.252-10.129,6.64c-1.731,1.278-2.101,3.72-0.822,5.451
				C44.557,27.682,45.736,28.23,46.931,28.23z"/>
			<path d="M26.785,167.825c-1.252-1.752-3.687-2.159-5.434-0.911c-1.754,1.25-2.161,3.683-0.913,5.436
				c2.325,3.261,4.871,6.442,7.569,9.456c0.769,0.862,1.834,1.299,2.903,1.299c0.925,0,1.853-0.327,2.599-0.993
				c1.602-1.435,1.739-3.897,0.304-5.5C31.309,173.809,28.942,170.854,26.785,167.825z"/>
			<path d="M109.312,73.982c-19.338,0-35.069,15.733-35.069,35.069s15.731,35.069,35.069,35.069
				c19.338,0,35.069-15.733,35.069-35.069S128.651,73.982,109.312,73.982z M109.312,136.327c-15.038,0-27.276-12.236-27.276-27.276
				c0-15.04,12.238-27.276,27.276-27.276c15.038,0,27.276,12.236,27.276,27.276C136.588,124.091,124.351,136.327,109.312,136.327z"
				/>
		</g>
	</g>
</g>
<g>
</g>
<g>
</g>
<g>
</g>
<g>
</g>
<g>
</g>
<g>
</g>
<g>
</g>
<g>
</g>
<g>
</g>
<g>
</g>
<g>
</g>
<g>
</g>
<g>
</g>
<g>
</g>
<g>
</g>
</svg>
